<?xml version="1.0" standalone="no"?>
<!DOCTYPE svg PUBLIC "-//W3C//DTD SVG 20010904//EN"
 "http://www.w3.org/TR/2001/REC-SVG-20010904/DTD/svg10.dtd">
<svg version="1.0" xmlns="http://www.w3.org/2000/svg"
 width="500.000000pt" height="500.000000pt" viewBox="0 0 500.000000 500.000000"
 preserveAspectRatio="xMidYMid meet">
<metadata>
Created by potrace 1.16, written by Peter Selinger 2001-2019
</metadata>
<g transform="translate(0.000000,500.000000) scale(0.100000,-0.100000)"
fill="#000000" stroke="none">
<path d="M0 2500 l0 -2500 2500 0 2500 0 0 2500 0 2500 -2500 0 -2500 0 0
-2500z m2252 930 c32 -11 79 -39 105 -61 26 -22 93 -62 148 -88 55 -27 114
-63 130 -81 17 -17 70 -52 118 -76 54 -27 113 -68 150 -102 34 -32 83 -72 108
-91 54 -38 84 -95 84 -157 0 -52 -21 -78 -92 -111 -29 -14 -63 -40 -77 -58
-16 -20 -44 -40 -73 -51 -99 -35 -129 -52 -179 -97 -28 -25 -85 -62 -127 -81
-42 -19 -96 -48 -119 -64 -60 -41 -121 -71 -202 -98 -90 -31 -109 -30 -148 5
l-33 29 -1 120 c-1 66 -4 125 -8 130 -9 15 -30 313 -32 452 -1 69 -5 188 -9
265 -6 127 -5 143 12 174 41 74 123 87 245 41z m1152 -1019 c16 -17 39 -64 57
-116 47 -142 108 -229 195 -280 51 -30 73 -66 81 -134 7 -65 -11 -117 -48
-137 -27 -13 -58 -14 -257 -5 -125 6 -254 8 -287 5 -122 -13 -185 28 -185 118
0 62 29 119 75 148 46 28 66 59 99 151 15 42 50 114 78 159 73 120 136 150
192 91z"/>
<path d="M2371 2937 c-13 -6 -34 -25 -45 -40 -19 -26 -21 -42 -21 -165 0 -158
9 -187 68 -215 52 -26 80 -16 148 51 31 31 73 70 93 85 32 26 36 34 36 75 0
44 -3 49 -72 115 -114 107 -150 124 -207 94z"/>
</g>
</svg>
